# xmcd
#
# Track frame offsets:
#  150
#  22021
#  31418
#  45043
#  69796
#  127507
#  192804
#  220255
#  233656
#  255836
#  272029
#  285938
#  305379
#
# Disc length: 4251 seconds
#
# Revision: 0
# Processed by: cddbd v1.5.2PL0 Copyright (c) Steve Scherf et al.
# Submitted via: Collectorz.com_Music_Collector 6.11
#
DISCID=9810990d
DTITLE=Eric Clapton - No Reason To Cry Sessions (2CDs) [CD2)
DYEAR=1976
DGENRE=Blues
TTITLE0=Idiot Wind
TTITLE1=Big River
TTITLE2=Blues
TTITLE3=Won't Somebody Tell Me
TTITLE4=What Would I Do (Take 1)
TTITLE5=What Would I Do (Take 2)
TTITLE6=What Would I Do (Take 3)
TTITLE7=What Would I Do (Take 4 and 5)
TTITLE8=Jam
TTITLE9=Tried To Make The Devil Road
TTITLE10=Carnival (Mono)
TTITLE11=Hungry (Long Version)
TTITLE12=Carnival (Short Version)
EXTD=
EXTT0=
EXTT1=
EXTT2=
EXTT3=
EXTT4=
EXTT5=
EXTT6=
EXTT7=
EXTT8=
EXTT9=
EXTT10=
EXTT11=
EXTT12=
PLAYORDER=
